<svg xmlns="http://www.w3.org/2000/svg" xmlns:xlink="http://www.w3.org/1999/xlink" width="500" zoomAndPan="magnify" viewBox="0 0 375 374.999991" height="500" preserveAspectRatio="xMidYMid meet" version="1.0"><defs><g/><clipPath id="8379e784c6"><path d="M 66.207031 66.207031 L 308.792969 66.207031 L 308.792969 308.792969 L 66.207031 308.792969 Z M 66.207031 66.207031 " clip-rule="nonzero"/></clipPath><clipPath id="45ba1da351"><path d="M 187.5 66.207031 C 120.511719 66.207031 66.207031 120.511719 66.207031 187.5 C 66.207031 254.488281 120.511719 308.792969 187.5 308.792969 C 254.488281 308.792969 308.792969 254.488281 308.792969 187.5 C 308.792969 120.511719 254.488281 66.207031 187.5 66.207031 Z M 187.5 66.207031 " clip-rule="nonzero"/></clipPath></defs><g clip-path="url(#8379e784c6)"><g clip-path="url(#45ba1da351)"><path fill="#ffffff" d="M 66.207031 66.207031 L 308.792969 66.207031 L 308.792969 308.792969 L 66.207031 308.792969 Z M 66.207031 66.207031 " fill-opacity="1" fill-rule="nonzero"/></g></g><g fill="#000000" fill-opacity="1"><g transform="translate(178.51407, 252.313109)"><g><path d="M -9.21875 -79.5625 C -12.5 -83.476562 -14.140625 -87.367188 -14.140625 -91.234375 C -14.140625 -95.097656 -13.238281 -98.429688 -11.4375 -101.234375 C -9.632812 -104.035156 -6.722656 -106.414062 -2.703125 -108.375 C 1.316406 -110.332031 5.867188 -111.3125 10.953125 -111.3125 L 76.0625 -111.3125 C 79.34375 -111.3125 82.96875 -111.628906 86.9375 -112.265625 C 90.90625 -112.898438 93.6875 -113.535156 95.28125 -114.171875 L 95.28125 -94.171875 L 93.6875 -94.328125 L 93.6875 -97.03125 C 93.6875 -99.570312 92.785156 -101.765625 90.984375 -103.609375 C 89.179688 -105.460938 87.066406 -106.441406 84.640625 -106.546875 L 54.46875 -106.546875 L 54.46875 -11.4375 C 54.570312 -7.625 56.265625 -4.765625 59.546875 -2.859375 C 61.128906 -2.015625 62.820312 -1.59375 64.625 -1.59375 L 66.6875 -1.59375 L 66.6875 0 L 31.921875 0 L 31.921875 -1.59375 L 33.984375 -1.59375 C 36.734375 -1.59375 39.085938 -2.539062 41.046875 -4.4375 C 43.003906 -6.34375 44.035156 -8.625 44.140625 -11.28125 L 44.140625 -106.546875 L 10.953125 -106.546875 C 2.484375 -106.546875 -3.65625 -103.847656 -7.46875 -98.453125 C -9.476562 -95.703125 -10.484375 -92.816406 -10.484375 -89.796875 C -10.484375 -86.785156 -9.632812 -83.632812 -7.9375 -80.34375 Z M -9.21875 -79.5625 "/></g></g></g><g fill="#000000" fill-opacity="1"><g transform="translate(93.307998, 235.88332)"><g><path d="M 140.859375 -138.46875 C 141.703125 -138.46875 142.597656 -138.46875 143.546875 -138.46875 L 143.546875 -136.890625 C 131.898438 -136.890625 122.691406 -133.050781 115.921875 -125.375 C 109.148438 -117.695312 105.765625 -106.609375 105.765625 -92.109375 L 105.765625 -39.21875 C 105.765625 -26.832031 101.84375 -16.828125 94 -9.203125 C 86.164062 -1.585938 75.738281 2.21875 62.71875 2.21875 C 49.695312 2.21875 39.132812 -1.5625 31.03125 -9.125 C 22.9375 -16.695312 18.890625 -26.675781 18.890625 -39.0625 L 18.890625 -101.78125 C 18.890625 -104.851562 17.515625 -107.128906 14.765625 -108.609375 C 13.492188 -109.242188 12.066406 -109.5625 10.484375 -109.5625 L 7.9375 -109.5625 L 7.9375 -111.15625 L 40.171875 -111.15625 L 40.171875 -109.5625 L 37.640625 -109.5625 C 35.304688 -109.5625 33.34375 -108.847656 31.75 -107.421875 C 30.164062 -105.992188 29.320312 -104.171875 29.21875 -101.953125 L 29.21875 -41.28125 C 29.21875 -29.75 32.3125 -20.460938 38.5 -13.421875 C 44.695312 -6.378906 52.828125 -2.859375 62.890625 -2.859375 C 73.578125 -2.859375 82.148438 -6.191406 88.609375 -12.859375 C 95.066406 -19.523438 98.296875 -28.3125 98.296875 -39.21875 L 98.296875 -91.9375 C 98.296875 -107.5 102.238281 -119.144531 110.125 -126.875 C 118.007812 -134.601562 128.253906 -138.46875 140.859375 -138.46875 Z M 140.859375 -138.46875 "/></g></g></g><path fill="#ffffff" d="M 105.882812 179.496094 L 243.644531 179.496094 C 244.707031 179.496094 245.726562 179.917969 246.476562 180.667969 C 247.226562 181.417969 247.648438 182.4375 247.648438 183.5 L 247.648438 191.5 C 247.648438 192.5625 247.226562 193.582031 246.476562 194.332031 C 245.726562 195.082031 244.707031 195.503906 243.644531 195.503906 L 105.882812 195.503906 C 104.820312 195.503906 103.804688 195.082031 103.050781 194.332031 C 102.300781 193.582031 101.878906 192.5625 101.878906 191.5 L 101.878906 183.5 C 101.878906 182.4375 102.300781 181.417969 103.050781 180.667969 C 103.804688 179.917969 104.820312 179.496094 105.882812 179.496094 Z M 105.882812 179.496094 " fill-opacity="1" fill-rule="nonzero"/><g fill="#000000" fill-opacity="1"><g transform="translate(109.698424, 190.500002)"><g><path d="M 5.453125 -7.109375 L 6.75 -7.109375 L 6.765625 -3.328125 C 6.765625 -2.617188 6.644531 -2.007812 6.40625 -1.5 C 6.175781 -0.988281 5.832031 -0.59375 5.375 -0.3125 C 4.925781 -0.0390625 4.382812 0.09375 3.75 0.09375 C 2.738281 0.09375 1.976562 -0.160156 1.46875 -0.671875 C 0.957031 -1.179688 0.703125 -1.960938 0.703125 -3.015625 L 0.703125 -7.109375 L 2 -7.109375 L 2 -3.109375 C 2 -2.398438 2.144531 -1.882812 2.4375 -1.5625 C 2.726562 -1.238281 3.160156 -1.078125 3.734375 -1.078125 C 4.316406 -1.078125 4.753906 -1.265625 5.046875 -1.640625 C 5.335938 -2.015625 5.476562 -2.597656 5.46875 -3.390625 Z M 5.453125 -7.109375 "/></g></g></g><g fill="#000000" fill-opacity="1"><g transform="translate(124.776821, 190.500002)"><g><path d="M 0.734375 0 L 0.734375 -7.109375 L 2.03125 -7.109375 L 2.03125 -1.140625 L 5.203125 -1.140625 L 5.109375 0 Z M 0.734375 0 "/></g></g></g><g fill="#000000" fill-opacity="1"><g transform="translate(137.543396, 190.500002)"><g><path d="M -0.09375 0 L 2.9375 -7.109375 L 4.03125 -7.109375 L 6.953125 0 L 5.625 0 L 4.984375 -1.625 L 1.890625 -1.625 L 1.21875 0 Z M 2.328125 -2.71875 L 4.5625 -2.71875 L 3.46875 -5.515625 Z M 2.328125 -2.71875 "/></g></g></g><g fill="#000000" fill-opacity="1"><g transform="translate(152.051339, 190.500002)"><g><path d="M 8.59375 -7.109375 L 9.828125 -7.109375 L 7.765625 0 L 6.296875 0 L 5 -5.421875 L 3.453125 0 L 1.96875 0 L 0.203125 -7.109375 L 1.515625 -7.109375 L 2.796875 -1.671875 L 4.3125 -7.109375 L 5.828125 -7.109375 L 7.09375 -1.703125 Z M 8.59375 -7.109375 "/></g></g></g><g fill="#000000" fill-opacity="1"><g transform="translate(169.521609, 190.500002)"><g/></g></g><g fill="#000000" fill-opacity="1"><g transform="translate(179.576061, 190.500002)"><g><path d="M 5.890625 -7.109375 L 5.734375 -5.96875 L 3.53125 -5.96875 L 3.53125 0 L 2.21875 0 L 2.21875 -5.96875 L -0.0625 -5.96875 L -0.0625 -7.109375 Z M 5.890625 -7.109375 "/></g></g></g><g fill="#000000" fill-opacity="1"><g transform="translate(192.943108, 190.500002)"><g><path d="M -0.09375 0 L 2.9375 -7.109375 L 4.03125 -7.109375 L 6.953125 0 L 5.625 0 L 4.984375 -1.625 L 1.890625 -1.625 L 1.21875 0 Z M 2.328125 -2.71875 L 4.5625 -2.71875 L 3.46875 -5.515625 Z M 2.328125 -2.71875 "/></g></g></g><g fill="#000000" fill-opacity="1"><g transform="translate(207.451057, 190.500002)"><g><path d="M 0.734375 0 L 0.734375 -7.109375 L 3.09375 -7.109375 C 4 -7.109375 4.691406 -6.941406 5.171875 -6.609375 C 5.660156 -6.285156 5.90625 -5.804688 5.90625 -5.171875 C 5.90625 -4.828125 5.820312 -4.519531 5.65625 -4.25 C 5.488281 -3.976562 5.25 -3.765625 4.9375 -3.609375 C 5.257812 -3.484375 5.519531 -3.28125 5.71875 -3 C 5.914062 -2.71875 6.015625 -2.394531 6.015625 -2.03125 C 6.015625 -1.414062 5.78125 -0.921875 5.3125 -0.546875 C 4.851562 -0.179688 4.222656 0 3.421875 0 Z M 3.109375 -6.046875 L 2 -6.046875 L 2 -4.109375 L 3.09375 -4.109375 C 3.601562 -4.109375 3.976562 -4.1875 4.21875 -4.34375 C 4.46875 -4.507812 4.59375 -4.765625 4.59375 -5.109375 C 4.59375 -5.429688 4.472656 -5.664062 4.234375 -5.8125 C 4.003906 -5.96875 3.628906 -6.046875 3.109375 -6.046875 Z M 2 -1.0625 L 3.390625 -1.0625 C 3.796875 -1.0625 4.117188 -1.140625 4.359375 -1.296875 C 4.597656 -1.460938 4.71875 -1.71875 4.71875 -2.0625 C 4.71875 -2.707031 4.265625 -3.03125 3.359375 -3.03125 L 2 -3.03125 Z M 2 -1.0625 "/></g></g></g><g fill="#000000" fill-opacity="1"><g transform="translate(221.408568, 190.500002)"><g><path d="M 0.734375 0 L 0.734375 -7.109375 L 2.03125 -7.109375 L 2.03125 -1.140625 L 5.203125 -1.140625 L 5.109375 0 Z M 0.734375 0 "/></g></g></g><g fill="#000000" fill-opacity="1"><g transform="translate(234.175138, 190.500002)"><g><path d="M 5.3125 -5.984375 L 2 -5.984375 L 2 -4.15625 L 5.140625 -4.15625 L 5.140625 -3.03125 L 2 -3.03125 L 2 -1.125 L 5.421875 -1.125 L 5.34375 0 L 0.734375 0 L 0.734375 -7.109375 L 5.3125 -7.109375 Z M 5.3125 -5.984375 "/></g></g></g></svg>